<mxfile host="app.diagrams.net" modified="2023-12-06T12:50:09.552Z" agent="Mozilla/5.0 (Windows NT 10.0; Win64; x64) AppleWebKit/537.36 (KHTML, like Gecko) Chrome/119.0.0.0 Safari/537.36" version="22.1.5" etag="Cm6x6GXxuOH38u5OjvYU" type="github">
  <diagram name="Page-1" id="tNXyr0viOEzoh76YY16O">
    <mxGraphModel>
      <root>
        <mxCell id="0" />
        <mxCell id="1" parent="0" />
      </root>
    </mxGraphModel>
  </diagram>
</mxfile>
